<svg xmlns="http://www.w3.org/2000/svg" width="205" height="48" viewBox="0 0 205 48"><g><g><g><text dominant-baseline="text-before-edge" style="line-height:40px" fill="#fff" font-family="'Circe','Circe-Bold'" font-size="30" font-style="none" font-weight="700" transform="translate(56 20)"><tspan style="font-kerning:normal" letter-spacing=".3">Dynamicov.</tspan></text></g></g><g opacity=".5"><path fill="#00f" d="M11 20c6.075 0 11 4.925 11 11s-4.925 11-11 11S0 37.075 0 31s4.925-11 11-11z"/></g><g opacity=".7"><path fill="#00f" d="M19 17c7.732 0 14 6.268 14 14s-6.268 14-14 14S5 38.732 5 31s6.268-14 14-14z"/></g><g><path fill="#00f" d="M28 14c9.389 0 17 7.611 17 17s-7.611 17-17 17-17-7.611-17-17 7.611-17 17-17z"/></g><g opacity=".5"><g><text fill="#fff" dominant-baseline="text-before-edge" font-family="'Circe','Circe-Regular'" font-size="16" font-style="none" font-weight="400" transform="translate(53)"><tspan style="font-kerning:normal" letter-spacing=".16">Сделано в</tspan></text></g></g></g></svg>