<svg id="Группа_7" data-name="Группа 7" xmlns="http://www.w3.org/2000/svg" width="615" height="162" viewBox="0 0 205 54">
  <metadata><?xpacket begin="﻿" id="W5M0MpCehiHzreSzNTczkc9d"?>
<x:xmpmeta xmlns:x="adobe:ns:meta/" x:xmptk="Adobe XMP Core 5.6-c140 79.160451, 2017/05/06-01:08:21        ">
   <rdf:RDF xmlns:rdf="http://www.w3.org/1999/02/22-rdf-syntax-ns#">
      <rdf:Description rdf:about=""/>
   </rdf:RDF>
</x:xmpmeta>
                                                                                                    
                                                                                                    
                                                                                                    
                                                                                                    
                                                                                                    
                                                                                                    
                                                                                                    
                                                                                                    
                                                                                                    
                                                                                                    
                                                                                                    
                                                                                                    
                                                                                                    
                                                                                                    
                                                                                                    
                                                                                                    
                                                                                                    
                                                                                                    
                                                                                                    
                                                                                                    
                           
<?xpacket end="w"?></metadata>
<defs>
    <style>
      .cls-1, .cls-5 {
        fill: #fff;
        fill-rule: evenodd;
      }

      .cls-2, .cls-3, .cls-4 {
        fill: blue;
      }

      .cls-2, .cls-5 {
        opacity: 0.5;
      }

      .cls-3 {
        opacity: 0.7;
      }
    </style>
  </defs>
  <g id="Logo">
    <path id="Dynamicov." class="cls-1" d="M59.474,41.357q1.32,0.03,2.52.03,5.76,0,8.88-3.03a10.334,10.334,0,0,0,3.15-7.74,10.2,10.2,0,0,0-2.73-7.26q-2.941-3.12-9.06-3.12l-3,.06q-1.47.03-2.79,0.03h-0.39v21h0.42q1.71,0,3,.03h0Zm8.535-15.81a6.406,6.406,0,0,1,2.115,5.07,6.938,6.938,0,0,1-2.13,5.34,8.3,8.3,0,0,1-5.88,1.98q-0.99,0-2.37-.06v-14.1q1.26-.09,2.43-0.09A8.536,8.536,0,0,1,68.009,25.547Zm15.825,9.63a11.981,11.981,0,0,0-.48,1.98q-0.6-1.8-.66-1.95l-3.15-7.38H75.4l6.24,13.5-0.3.72q-0.84,2.1-2.07,2.1a2.759,2.759,0,0,1-1.41-.48l-1.11,2.61a5,5,0,0,0,2.91,1.05,3.409,3.409,0,0,0,2.64-1.26,17.041,17.041,0,0,0,2.58-4.74l5.31-13.5h-3.93Zm12.18-3.06a4.05,4.05,0,0,1,2.94-1.29q3.029,0,3.03,3.18v7.32h3.45v-7.92q0-5.82-5.55-5.82a5.082,5.082,0,0,0-3.87,1.59v-1.35h-3.45v13.5h3.45v-9.21Zm17.82-1.74a2.259,2.259,0,0,1,2,.84,4.425,4.425,0,0,1,.525,2.64,5.168,5.168,0,0,0-3.06-.87,5.349,5.349,0,0,0-3.57,1.14,4.007,4.007,0,0,0-1.35,3.24,4.016,4.016,0,0,0,1.155,3.015,4.218,4.218,0,0,0,3.075,1.125,4.5,4.5,0,0,0,3.99-1.74v1.56h3v-8.22a6.015,6.015,0,0,0-1.29-4.23,5.4,5.4,0,0,0-4.11-1.38,9.234,9.234,0,0,0-4.77,1.29l0.87,2.52a8.489,8.489,0,0,1,3.54-.93h0Zm-1.47,7.785a1.408,1.408,0,0,1-.54-1.155,1.455,1.455,0,0,1,.6-1.23,2.532,2.532,0,0,1,1.56-.45,3.757,3.757,0,0,1,2.37.66v1.38a2.985,2.985,0,0,1-2.61,1.23A2.129,2.129,0,0,1,112.363,38.162ZM139.6,27.587a5.419,5.419,0,0,0-4.56,2.16,3.1,3.1,0,0,0-1.425-1.575,5.017,5.017,0,0,0-2.5-.585,5.4,5.4,0,0,0-4.23,1.74v-1.5h-3.45v13.5h3.45v-9.06a3.129,3.129,0,0,1,2.82-1.44,2.16,2.16,0,0,1,1.665.63,2.414,2.414,0,0,1,.585,1.71v8.16h3.45v-7.95c0-.08,0-0.255-0.015-0.525s-0.015-.425-0.015-0.465a2.882,2.882,0,0,1,2.79-1.56q2.31,0,2.31,2.58v7.92h3.45v-8.82q0-4.92-4.32-4.92h0Zm12.09,0.24h-3.45v13.5h3.45v-13.5Zm-3.2-3.3a2.12,2.12,0,0,0,1.545.6,1.88,1.88,0,0,0,1.395-.6,2.139,2.139,0,0,0,.585-1.56,1.972,1.972,0,0,0-1.98-2.01,2.219,2.219,0,0,0-1.545.555,1.867,1.867,0,0,0-.615,1.455A2.082,2.082,0,0,0,148.5,24.527Zm14.6,13.92a4.064,4.064,0,0,1-2.76-1.05,3.7,3.7,0,0,1-1.14-2.82,3.562,3.562,0,0,1,1.11-2.76,3.719,3.719,0,0,1,2.64-1.08,4.683,4.683,0,0,1,3.36,1.32l1.62-2.73a7.37,7.37,0,0,0-5.43-1.83,6.685,6.685,0,0,0-5.01,2.04,6.891,6.891,0,0,0-1.98,5.04,6.758,6.758,0,0,0,2.01,5.13,7.362,7.362,0,0,0,5.31,1.95,6.206,6.206,0,0,0,5.37-2.34l-1.62-2.52a4.521,4.521,0,0,1-3.48,1.65h0Zm13.95,3.21a7.3,7.3,0,0,0,5.31-1.98,6.919,6.919,0,0,0,2.04-5.1,6.759,6.759,0,0,0-2.04-5.07,8.059,8.059,0,0,0-10.65,0,6.811,6.811,0,0,0-2.01,5.07,6.909,6.909,0,0,0,2.01,5.1,7.279,7.279,0,0,0,5.34,1.98h0Zm0-10.92a3.528,3.528,0,0,1,2.64,1.08,3.8,3.8,0,0,1,1.05,2.76,3.866,3.866,0,0,1-1.035,2.79,3.516,3.516,0,0,1-2.655,1.08,3.455,3.455,0,0,1-2.625-1.095,3.878,3.878,0,0,1-1.035-2.775,3.8,3.8,0,0,1,1.05-2.76,3.493,3.493,0,0,1,2.61-1.08h0Zm16.71,2.82a22.935,22.935,0,0,0-.99,3.12,17.18,17.18,0,0,0-1.02-3.06l-2.49-5.79h-4.11l6.21,13.56h2.55l5.82-13.56h-3.63Zm7.185,7.215a2.283,2.283,0,0,0,1.725.705,2.022,2.022,0,0,0,1.545-.705,2.423,2.423,0,0,0,.645-1.7,2.174,2.174,0,0,0-.645-1.545,2.062,2.062,0,0,0-1.545-.675,2.336,2.336,0,0,0-1.725.675,2.126,2.126,0,0,0-.675,1.545A2.363,2.363,0,0,0,200.938,40.772Z"/>
  </g>
  <g id="Знак_2" data-name="Знак 2">
    <circle id="Эллипс_1_копия_2" data-name="Эллипс 1 копия 2" class="cls-2" cx="11" cy="31" r="11"/>
    <circle id="Эллипс_1_копия" data-name="Эллипс 1 копия" class="cls-3" cx="19" cy="31" r="14"/>
    <circle id="Эллипс_1" data-name="Эллипс 1" class="cls-4" cx="28" cy="31" r="17"/>
  </g>
  <path id="Сделано_в_" data-name="Сделано в " class="cls-5" d="M59.382,11.358a4.287,4.287,0,0,1-3.168-1.232,4.491,4.491,0,0,1-1.2-3.248,4.5,4.5,0,0,1,1.168-3.232A3.916,3.916,0,0,1,59.174,2.4a4.514,4.514,0,0,1,2.768.832l0.624-1.024a5.086,5.086,0,0,0-3.408-1.088,5.25,5.25,0,0,0-4.08,1.648,5.8,5.8,0,0,0-1.5,4.112,5.732,5.732,0,0,0,1.568,4.192,5.627,5.627,0,0,0,4.112,1.568A6.058,6.058,0,0,0,61.27,12.3a3.855,3.855,0,0,0,1.52-.912l-0.544-1.024a4.432,4.432,0,0,1-2.864.992h0Zm5.184,1.12H70.39v1.76h1.2v-2.96h-1.2v-6H65.478l-0.112,1.9a12.855,12.855,0,0,1-.4,2.488,4.542,4.542,0,0,1-.7,1.608h-0.9v2.96h1.2v-1.76Zm4.544-6v4.8H65.622a4.79,4.79,0,0,0,.592-1.408A11.015,11.015,0,0,0,66.6,7.678l0.08-1.2H69.11Zm7.5,4.96a2.617,2.617,0,0,1-1.752-.576,2.208,2.208,0,0,1-.76-1.584h5.536a4.406,4.406,0,0,0,.08-0.864,3.119,3.119,0,0,0-.96-2.368,3.262,3.262,0,0,0-2.384-.928,3.493,3.493,0,0,0-2.72,1.072,3.8,3.8,0,0,0-.992,2.688,3.635,3.635,0,0,0,1.056,2.736,3.817,3.817,0,0,0,2.8,1.024,3.867,3.867,0,0,0,2.7-.944l-0.4-1.008a3.1,3.1,0,0,1-2.208.752h0ZM77.789,6.83a1.98,1.98,0,0,1,.6,1.408H74.021a2.122,2.122,0,0,1,.728-1.392,2.312,2.312,0,0,1,1.56-.528A2.091,2.091,0,0,1,77.789,6.83Zm9.752-1.552H82.533l-0.128,2.24a10.975,10.975,0,0,1-.2,1.672,5.509,5.509,0,0,1-.336,1.128,2.3,2.3,0,0,1-.416.64,1.237,1.237,0,0,1-.424.312,0.828,0.828,0,0,1-.368.056l0.1,1.248a2.7,2.7,0,0,0,1.056-.184,2.186,2.186,0,0,0,.824-0.672,3.891,3.891,0,0,0,.64-1.472,15.981,15.981,0,0,0,.376-2.472l0.08-1.216h2.528v5.92h1.28v-7.2ZM92.373,6.27a1.421,1.421,0,0,1,1.3.528,3.388,3.388,0,0,1,.336,1.744,3.055,3.055,0,0,0-1.792-.464,3.007,3.007,0,0,0-1.968.616,2.047,2.047,0,0,0-.752,1.672A2.079,2.079,0,0,0,91.7,12.59a2.815,2.815,0,0,0,2.3-1.04v0.928h1.216V8.062a3.222,3.222,0,0,0-.656-2.224,2.734,2.734,0,0,0-2.112-.72,4.506,4.506,0,0,0-2.4.656L90.389,6.8a4.254,4.254,0,0,1,1.984-.528h0ZM91.2,11.134a1.053,1.053,0,0,1-.344-0.832,1.008,1.008,0,0,1,.44-0.872,1.847,1.847,0,0,1,1.1-.312,2.707,2.707,0,0,1,1.616.48V10.51a2.363,2.363,0,0,1-1.856.928A1.388,1.388,0,0,1,91.2,11.134Zm12.888-5.856h-1.28v2.96h-4V5.278h-1.28v7.2h1.28V9.438h4v3.04h1.28v-7.2Zm5.84,7.36a3.744,3.744,0,0,0,2.768-1.056,3.664,3.664,0,0,0,1.072-2.7,3.611,3.611,0,0,0-1.072-2.688,3.714,3.714,0,0,0-2.768-1.072,3.768,3.768,0,0,0-2.784,1.072,3.641,3.641,0,0,0-1.056,2.688,3.729,3.729,0,0,0,1.056,2.7,3.831,3.831,0,0,0,2.784,1.056h0Zm-1.776-5.6a2.55,2.55,0,0,1,3.552,0,2.558,2.558,0,0,1,.7,1.84,2.531,2.531,0,0,1-.7,1.848,2.591,2.591,0,0,1-3.576-.008,2.519,2.519,0,0,1-.688-1.84,2.49,2.49,0,0,1,.7-1.84h0Zm11.632,5.448c0.106,0.005.256,0.011,0.448,0.016s0.368,0.008.528,0.008q1.248,0.032,1.408.032,3.312,0,3.312-2.1a1.692,1.692,0,0,0-1.68-1.7V8.718a1.666,1.666,0,0,0,1.04-.552,1.608,1.608,0,0,0,.4-1.1q0-1.856-3.1-1.856-0.288,0-1.472.032c-0.15,0-.315,0-0.5.008s-0.32.011-.416,0.016-0.171.008-.224,0.008v7.2C119.589,12.478,119.674,12.481,119.781,12.486Zm4.336-2.136q0,1.152-1.84,1.152-0.321,0-1.472-.048V9.246h1.536q1.776,0,1.776,1.1h0Zm-0.24-3.024a0.974,0.974,0,0,1-.4.816,1.7,1.7,0,0,1-1.056.3h-1.616V6.3q0.96-.048,1.424-0.048,1.647,0,1.648,1.072h0Z"/>
</svg>
