<?xml version="1.0" encoding="utf-8"?>
<!-- Generator: Adobe Illustrator 17.0.0, SVG Export Plug-In . SVG Version: 6.00 Build 0)  -->
<!DOCTYPE svg PUBLIC "-//W3C//DTD SVG 1.1//EN" "http://www.w3.org/Graphics/SVG/1.1/DTD/svg11.dtd">
<svg version="1.1" id="Layer_1" xmlns="http://www.w3.org/2000/svg" xmlns:xlink="http://www.w3.org/1999/xlink" x="0px" y="0px"
	 width="66.984px" height="65.453px" viewBox="0 0 66.984 65.453" enable-background="new 0 0 66.984 65.453" xml:space="preserve">
<g>
	<g>
		<path fill="#FFFFFF" d="M22.646,1.154L19.761,0l-8.078,18.753h4.328c1.443,0,2.308-0.577,2.885-1.731l5.193-12.117
			C24.666,3.462,24.089,1.731,22.646,1.154z"/>
		<path fill="#FFFFFF" d="M46.059,0l-2.597,1.154c-1.443,0.577-2.02,2.308-1.443,3.751l4.905,12.117
			c0.577,1.154,1.443,1.731,2.597,1.731h4.328L46.059,0z"/>
		<path fill="#FFFFFF" d="M60.783,22.481H50.222H15.601H4.752H0v7.195c0,1.731,1.154,2.885,2.885,2.885h61.208
			c1.731,0,2.885-1.154,2.885-2.885v-7.195H60.783z"/>
	</g>
</g>
<path fill="#FFFFFF" d="M4.355,36.587L8.222,63.13c0.288,1.443,1.443,2.308,2.885,2.308H55.87c1.443,0,2.597-1.154,2.885-2.308
	l3.867-26.543C62.622,36.587,4.355,36.587,4.355,36.587z M43.819,56.188H22.874c-1.433,0-2.292-1.146-2.292-2.292
	s1.146-2.292,2.292-2.292h20.945c1.432,0,2.292,1.146,2.292,2.292S45.252,56.188,43.819,56.188z M47.358,46.592H19.619
	c-1.432,0-2.292-1.146-2.292-2.292c0-1.146,1.146-2.292,2.292-2.292h27.739c1.432,0,2.292,1.146,2.292,2.292
	C49.65,45.446,48.79,46.592,47.358,46.592z"/>
</svg>
